<svg width="24px" height="24px" viewBox="0 0 24 24" fill="none" xmlns="http://www.w3.org/2000/svg">
<path d="M12 12.76C11.8012 12.7598 11.6105 12.6807 11.47 12.54C11.3311 12.3983 11.2523 12.2084 11.25 12.01C11.2502 11.8112 11.3293 11.6205 11.47 11.48C11.6131 11.3442 11.8028 11.2686 12 11.2686C12.1972 11.2686 12.3869 11.3442 12.53 11.48C12.6707 11.6205 12.7498 11.8112 12.75 12.01C12.75 12.2089 12.671 12.3997 12.5303 12.5403C12.3897 12.681 12.1989 12.76 12 12.76Z" fill="black"/>
<path d="M12 22.86C11.5075 22.8612 11.0196 22.7646 10.5647 22.5758C10.1098 22.3869 9.69689 22.1096 9.34999 21.76L2.24999 14.66C1.90107 14.3125 1.62421 13.8995 1.4353 13.4448C1.24639 12.99 1.14914 12.5024 1.14914 12.01C1.14914 11.5176 1.24639 11.03 1.4353 10.5752C1.62421 10.1205 1.90107 9.70748 2.24999 9.35999L9.34999 2.25999C10.063 1.57668 11.0124 1.19521 12 1.19521C12.9876 1.19521 13.937 1.57668 14.65 2.25999L21.75 9.35999C22.0989 9.70748 22.3758 10.1205 22.5647 10.5752C22.7536 11.03 22.8508 11.5176 22.8508 12.01C22.8508 12.5024 22.7536 12.99 22.5647 13.4448C22.3758 13.8995 22.0989 14.3125 21.75 14.66L14.65 21.76C14.3031 22.1096 13.8902 22.3869 13.4353 22.5758C12.9804 22.7646 12.4925 22.8612 12 22.86ZM12 2.65999C11.7043 2.65803 11.4112 2.71544 11.1381 2.82881C10.865 2.94218 10.6174 3.1092 10.41 3.31999L3.30999 10.42C2.88864 10.8419 2.65197 11.4137 2.65197 12.01C2.65197 12.6062 2.88864 13.1781 3.30999 13.6L10.41 20.7C10.838 21.1095 11.4076 21.3381 12 21.3381C12.5924 21.3381 13.1619 21.1095 13.59 20.7L20.69 13.6C21.1113 13.1781 21.348 12.6062 21.348 12.01C21.348 11.4137 21.1113 10.8419 20.69 10.42L13.59 3.31999C13.3826 3.1092 13.135 2.94218 12.8619 2.82881C12.5888 2.71544 12.2957 2.65803 12 2.65999Z" fill="black"/>
</svg>
