<svg width="24px" height="24px" viewBox="0 0 24 24" fill="none" xmlns="http://www.w3.org/2000/svg">
<path d="M8.93999 13.08C8.82146 13.0773 8.70526 13.0465 8.60091 12.9902C8.49657 12.934 8.40706 12.8537 8.33972 12.7561C8.27239 12.6585 8.22915 12.5464 8.21355 12.4289C8.19795 12.3113 8.21044 12.1918 8.24999 12.08C8.29773 11.9669 8.37249 11.8672 8.46773 11.7898C8.56296 11.7123 8.67575 11.6594 8.7962 11.6357C8.91665 11.612 9.04108 11.6183 9.15856 11.6539C9.27604 11.6895 9.38298 11.7534 9.46999 11.84C9.54117 11.9065 9.59594 11.9887 9.62999 12.08C9.66954 12.1918 9.68203 12.3113 9.66644 12.4289C9.65084 12.5464 9.6076 12.6585 9.54026 12.7561C9.47293 12.8537 9.38342 12.934 9.27907 12.9902C9.17473 13.0465 9.05852 13.0773 8.93999 13.08Z" fill="black"/>
<path d="M14.51 13.11C14.3112 13.1098 14.1205 13.0307 13.98 12.89C13.9088 12.8235 13.8541 12.7413 13.82 12.65C13.7801 12.5585 13.7597 12.4598 13.76 12.36C13.7605 12.2603 13.7809 12.1617 13.82 12.07C13.8541 11.9787 13.9088 11.8966 13.98 11.83C14.1231 11.6943 14.3128 11.6186 14.51 11.6186C14.7072 11.6186 14.8969 11.6943 15.04 11.83C15.1112 11.8966 15.1659 11.9787 15.2 12.07C15.2391 12.1617 15.2595 12.2603 15.26 12.36C15.2603 12.4598 15.2399 12.5585 15.2 12.65C15.1659 12.7413 15.1112 12.8235 15.04 12.89C14.8995 13.0307 14.7088 13.1098 14.51 13.11Z" fill="black"/>
<path d="M11.77 22.86C11.2776 22.8601 10.7901 22.763 10.3353 22.5742C9.88056 22.3855 9.46755 22.1088 9.11999 21.76L1.99999 14.66C1.65107 14.3125 1.37421 13.8995 1.1853 13.4448C0.996387 12.99 0.899139 12.5024 0.899139 12.01C0.899139 11.5176 0.996387 11.03 1.1853 10.5752C1.37421 10.1205 1.65107 9.70749 1.99999 9.36L9.09999 2.26C9.80312 1.55775 10.7562 1.1633 11.75 1.1633C12.7437 1.1633 13.6969 1.55775 14.4 2.26L21.5 9.36C22.2022 10.0631 22.5967 11.0162 22.5967 12.01C22.5967 13.0038 22.2022 13.9569 21.5 14.66L14.4 21.76C13.7029 22.4595 12.7575 22.8549 11.77 22.86ZM11.77 2.66C11.4743 2.65804 11.1812 2.71545 10.9081 2.82881C10.635 2.94218 10.3874 3.10921 10.18 3.32L3.07999 10.42C2.65864 10.8419 2.42197 11.4137 2.42197 12.01C2.42197 12.6063 2.65864 13.1781 3.07999 13.6L10.18 20.7C10.608 21.1095 11.1776 21.3381 11.77 21.3381C12.3624 21.3381 12.9319 21.1095 13.36 20.7L20.46 13.6C20.8813 13.1781 21.118 12.6063 21.118 12.01C21.118 11.4137 20.8813 10.8419 20.46 10.42L13.36 3.32C13.1526 3.10921 12.905 2.94218 12.6319 2.82881C12.3588 2.71545 12.0657 2.65804 11.77 2.66Z" fill="black"/>
</svg>
