<svg width="24px" height="24px" viewBox="0 0 24 24" fill="none" xmlns="http://www.w3.org/2000/svg">
<path d="M7.59001 12.87C7.39117 12.8698 7.20053 12.7907 7.06001 12.65C6.92113 12.5083 6.84232 12.3184 6.84001 12.12C6.84271 12.0015 6.87346 11.8853 6.92976 11.7809C6.98605 11.6766 7.06629 11.5871 7.16387 11.5197C7.26146 11.4524 7.37362 11.4092 7.49115 11.3936C7.60868 11.378 7.72824 11.3904 7.84001 11.43C7.93131 11.4641 8.01346 11.5188 8.08001 11.59C8.22046 11.7306 8.29935 11.9213 8.29935 12.12C8.29935 12.3188 8.22046 12.5094 8.08001 12.65C8.01065 12.7178 7.92926 12.7721 7.84001 12.81C7.76095 12.8448 7.67627 12.8652 7.59001 12.87Z" fill="black"/>
<path d="M12.11 8.35C11.9111 8.35 11.7203 8.27098 11.5797 8.13033C11.439 7.98967 11.36 7.79891 11.36 7.6C11.3623 7.40158 11.4411 7.21172 11.58 7.07C11.6852 6.96811 11.8177 6.8988 11.9614 6.87041C12.1051 6.84202 12.2539 6.85577 12.39 6.91C12.4835 6.94539 12.5687 6.99988 12.64 7.07C12.7789 7.21172 12.8577 7.40158 12.86 7.6C12.8598 7.79884 12.7807 7.98948 12.64 8.13C12.5693 8.20326 12.4841 8.26114 12.39 8.3C12.3 8.33191 12.2054 8.3488 12.11 8.35Z" fill="black"/>
<path d="M11.83 17.11C11.6316 17.1077 11.4417 17.0289 11.3 16.89C11.1595 16.7494 11.0807 16.5587 11.0807 16.36C11.0807 16.1612 11.1595 15.9706 11.3 15.83C11.4431 15.6942 11.6328 15.6186 11.83 15.6186C12.0272 15.6186 12.2169 15.6942 12.36 15.83C12.4308 15.8989 12.4885 15.9803 12.53 16.07C12.5609 16.1637 12.5777 16.2614 12.58 16.36C12.58 16.5589 12.501 16.7497 12.3603 16.8903C12.2197 17.031 12.0289 17.11 11.83 17.11Z" fill="black"/>
<path d="M16.35 12.6C16.2502 12.6003 16.1515 12.5799 16.06 12.54C15.9708 12.502 15.8894 12.4478 15.82 12.38C15.7487 12.3097 15.694 12.2242 15.66 12.13C15.6212 12.0417 15.6008 11.9464 15.6 11.85C15.5997 11.6481 15.6787 11.4542 15.82 11.31C15.8919 11.2453 15.9727 11.1915 16.06 11.15C16.247 11.0802 16.453 11.0802 16.64 11.15C16.7273 11.1915 16.8082 11.2453 16.88 11.31C17.0213 11.4542 17.1003 11.6481 17.1 11.85C17.0992 11.9464 17.0788 12.0417 17.04 12.13C17.0023 12.2224 16.9481 12.3071 16.88 12.38C16.7395 12.5207 16.5489 12.5998 16.35 12.6Z" fill="black"/>
<path d="M12 22.84C11.5076 22.8401 11.0201 22.743 10.5653 22.5542C10.1106 22.3655 9.69757 22.0888 9.35001 21.74L2.25001 14.64C1.54775 13.9369 1.15331 12.9837 1.15331 11.99C1.15331 10.9962 1.54775 10.0431 2.25001 9.34L9.35001 2.24C10.0531 1.53774 11.0063 1.1433 12 1.1433C12.9938 1.1433 13.9469 1.53774 14.65 2.24L21.75 9.34C22.0989 9.68748 22.3758 10.1005 22.5647 10.5552C22.7536 11.01 22.8509 11.4976 22.8509 11.99C22.8509 12.4824 22.7536 12.97 22.5647 13.4248C22.3758 13.8795 22.0989 14.2925 21.75 14.64L14.65 21.74C14.3024 22.0888 13.8894 22.3655 13.4347 22.5542C12.9799 22.743 12.4924 22.8401 12 22.84ZM12 2.64C11.7045 2.63916 11.4117 2.69707 11.1387 2.81038C10.8658 2.92368 10.6181 3.09011 10.41 3.3L3.31001 10.4C2.88865 10.8219 2.65199 11.3937 2.65199 11.99C2.65199 12.5862 2.88865 13.1581 3.31001 13.58L10.41 20.68C10.8319 21.1013 11.4038 21.338 12 21.338C12.5963 21.338 13.1681 21.1013 13.59 20.68L20.69 13.58C21.1114 13.1581 21.348 12.5862 21.348 11.99C21.348 11.3937 21.1114 10.8219 20.69 10.4L13.59 3.3C13.3819 3.09011 13.1342 2.92368 12.8613 2.81038C12.5883 2.69707 12.2955 2.63916 12 2.64Z" fill="black"/>
</svg>
