<svg width="24px" height="24px" viewBox="0 0 24 24" fill="none" xmlns="http://www.w3.org/2000/svg">
<path d="M6.18 12.89C6.03176 12.8899 5.88689 12.8458 5.76367 12.7634C5.64046 12.681 5.54443 12.5639 5.48772 12.4269C5.43101 12.29 5.41616 12.1393 5.44504 11.9939C5.47392 11.8485 5.54525 11.7149 5.65 11.61C5.79307 11.4743 5.98278 11.3986 6.18 11.3986C6.37723 11.3986 6.56694 11.4743 6.71 11.61C6.81617 11.7147 6.88824 11.8489 6.91679 11.9953C6.94534 12.1416 6.92904 12.2931 6.87 12.43C6.83206 12.5193 6.7778 12.6006 6.71 12.67C6.63869 12.7401 6.55355 12.7946 6.46 12.83C6.37209 12.8699 6.27657 12.8904 6.18 12.89Z" fill="black"/>
<path d="M12 12.76C11.9002 12.7603 11.8015 12.7399 11.71 12.7C11.6207 12.6621 11.5394 12.6078 11.47 12.54C11.3311 12.3983 11.2523 12.2084 11.25 12.01C11.2512 11.9113 11.268 11.8134 11.3 11.72C11.339 11.6289 11.397 11.5471 11.47 11.48C11.5711 11.3718 11.7032 11.2974 11.8481 11.267C11.9931 11.2366 12.1439 11.2516 12.28 11.31C12.3741 11.3489 12.4593 11.4067 12.53 11.48C12.5978 11.5494 12.6521 11.6308 12.69 11.72C12.7299 11.8115 12.7503 11.9102 12.75 12.01C12.75 12.2089 12.671 12.3997 12.5303 12.5403C12.3897 12.681 12.1989 12.76 12 12.76Z" fill="black"/>
<path d="M17.76 12.62C17.6636 12.6192 17.5683 12.5988 17.48 12.56C17.3865 12.5246 17.3013 12.4701 17.23 12.4C17.0911 12.2583 17.0123 12.0684 17.01 11.87C17.0097 11.7702 17.0301 11.6715 17.07 11.58C17.108 11.4907 17.1622 11.4094 17.23 11.34C17.2986 11.2666 17.3846 11.2115 17.48 11.18C17.6156 11.1232 17.7651 11.108 17.9094 11.1365C18.0537 11.165 18.1862 11.2359 18.29 11.34C18.363 11.4071 18.421 11.4889 18.46 11.58C18.492 11.6734 18.5088 11.7713 18.51 11.87C18.5077 12.0684 18.4289 12.2583 18.29 12.4C18.1495 12.5407 17.9589 12.6198 17.76 12.62Z" fill="black"/>
<path d="M12 22.86C11.5076 22.8601 11.0201 22.763 10.5653 22.5742C10.1106 22.3855 9.69757 22.1088 9.35001 21.76L2.25001 14.66C1.54775 13.9569 1.15331 13.0038 1.15331 12.01C1.15331 11.0162 1.54775 10.0631 2.25001 9.36L9.35001 2.26C10.0531 1.55775 11.0063 1.1633 12 1.1633C12.9938 1.1633 13.9469 1.55775 14.65 2.26L21.75 9.36C22.0989 9.70749 22.3758 10.1205 22.5647 10.5752C22.7536 11.03 22.8509 11.5176 22.8509 12.01C22.8509 12.5024 22.7536 12.99 22.5647 13.4448C22.3758 13.8995 22.0989 14.3125 21.75 14.66L14.65 21.76C14.3024 22.1088 13.8894 22.3855 13.4347 22.5742C12.9799 22.763 12.4924 22.8601 12 22.86ZM12 2.66C11.7043 2.65804 11.4112 2.71545 11.1381 2.82881C10.865 2.94218 10.6174 3.10921 10.41 3.32L3.31001 10.42C2.88865 10.8419 2.65199 11.4137 2.65199 12.01C2.65199 12.6063 2.88865 13.1781 3.31001 13.6L10.41 20.7C10.8381 21.1095 11.4076 21.3381 12 21.3381C12.5924 21.3381 13.162 21.1095 13.59 20.7L20.69 13.6C21.1114 13.1781 21.348 12.6063 21.348 12.01C21.348 11.4137 21.1114 10.8419 20.69 10.42L13.59 3.32C13.3826 3.10921 13.135 2.94218 12.8619 2.82881C12.5888 2.71545 12.2957 2.65804 12 2.66Z" fill="black"/>
</svg>
